<svg xmlns="http://www.w3.org/2000/svg" xmlns:xlink="http://www.w3.org/1999/xlink" width="1524" height="600" viewBox="0 0 1524 600">
  <defs>
    <linearGradient id="hot-100-bg-desktop-b" x1="1.233%" x2="98.303%" y1="2.594%" y2="96.798%">
      <stop offset="0%"/>
      <stop offset="100%" stop-color="#373737"/>
    </linearGradient>
    <rect id="hot-100-bg-desktop-a" width="1524" height="600"/>
  </defs>
  <g fill="none" fill-rule="evenodd">
    <mask id="hot-100-bg-desktop-c" fill="#fff">
      <use xlink:href="#hot-100-bg-desktop-a"/>
    </mask>
    <use fill="url(#hot-100-bg-desktop-b)" xlink:href="#hot-100-bg-desktop-a"/>
    <g fill-rule="nonzero" stroke-linejoin="round" mask="url(#hot-100-bg-desktop-c)">
      <g transform="translate(0 -84)">
        <polygon fill="#282563" stroke="#282563" points="1481.196 268.417 1472.279 285.36 1480.304 382.561"/>
        <polygon fill="#292C73" stroke="#292C73" points="1524 539.508 1392.913 425.365 1310.872 528.807"/>
        <polygon fill="#282D74" stroke="#282D74" points="1524 511.864 1392.913 425.365 1524 539.508"/>
        <polygon fill="#29225B" stroke="#29225B" points="1524 90.067 1439.284 230.071 1481.196 268.417"/>
        <polygon fill="#292057" stroke="#292057" points="1524 90.067 1459.794 32.103 1439.284 230.071"/>
        <polygon fill="#281E52" stroke="#281E52" points="1524 90.067 1524 0 1523.108 0"/>
        <polygon fill="#281E53" stroke="#281E53" points="1524 90.067 1523.108 0 1459.794 32.103"/>
        <polygon fill="#282B70" stroke="#282B70" points="1524 428.932 1392.913 425.365 1524 511.864"/>
        <polygon fill="#29296B" stroke="#29296B" points="1524 428.932 1480.304 382.561 1392.913 425.365"/>
        <polygon fill="#282767" stroke="#282767" points="1524 428.932 1481.196 268.417 1480.304 382.561"/>
        <polygon fill="#28245F" stroke="#28245F" points="1524 428.932 1524 90.067 1481.196 268.417"/>
        <polygon fill="#283A92" stroke="#283A92" points="1524 719.642 1364.377 663.462 1398.263 753.528"/>
        <polygon fill="#28307B" stroke="#28307B" points="1524 589.446 1524 539.508 1310.872 528.807"/>
        <polygon fill="#29317E" stroke="#29317E" points="1524 589.446 1310.872 528.807 1364.377 663.462"/>
        <polygon fill="#28378B" stroke="#28378B" points="1524 589.446 1364.377 663.462 1524 719.642"/>
        <polygon fill="#2B2A6E" stroke="#2B2A6E" points="1392.913 425.365 1343.867 448.55 1310.872 528.807"/>
        <polygon fill="#2A1F56" stroke="#2A1F56" points="1459.794 32.103 1298.387 0 1439.284 230.071"/>
        <polygon fill="#292663" stroke="#292663" points="1480.304 382.561 1472.279 285.36 1455.335 279.118"/>
        <polygon fill="#292767" stroke="#292767" points="1480.304 382.561 1455.335 279.118 1392.913 425.365"/>
        <polygon fill="#292460" stroke="#292460" points="1481.196 268.417 1455.335 279.118 1472.279 285.36"/>
        <polygon fill="#29245F" stroke="#29245F" points="1481.196 268.417 1439.284 230.071 1455.335 279.118"/>
        <polygon fill="#2B2665" stroke="#2B2665" points="1455.335 279.118 1221.697 332.623 1392.913 425.365"/>
        <polygon fill="#2B2F7A" stroke="#2B2F7A" points="1364.377 663.462 1310.872 528.807 1297.496 612.632"/>
        <polygon fill="#2B2460" stroke="#2B2460" points="1455.335 279.118 1439.284 230.071 1221.697 332.623"/>
        <polygon fill="#2E2057" stroke="#2E2057" points="1298.387 0 1252.016 0 1221.697 332.623"/>
        <polygon fill="#2C215B" stroke="#2C215B" points="1439.284 230.071 1298.387 0 1221.697 332.623"/>
        <polygon fill="#2C2768" stroke="#2C2768" points="1392.913 425.365 1221.697 332.623 1343.867 448.55"/>
        <polygon fill="#2A3689" stroke="#2A3689" points="1398.263 753.528 1364.377 663.462 1272.527 708.941"/>
        <polygon fill="#30215B" stroke="#30215B" points="1252.016 0 1066.532 246.123 1221.697 332.623"/>
        <polygon fill="#2B3280" stroke="#2B3280" points="1364.377 663.462 1297.496 612.632 1272.527 708.941"/>
        <polygon fill="#2C2A6E" stroke="#2C2A6E" points="1343.867 448.55 1159.274 507.406 1310.872 528.807"/>
        <polygon fill="#2E2768" stroke="#2E2768" points="1343.867 448.55 1221.697 332.623 1159.274 507.406"/>
        <polygon fill="#2B307C" stroke="#2B307C" points="1297.496 612.632 1204.754 675.946 1272.527 708.941"/>
        <polygon fill="#2C2B72" stroke="#2C2B72" points="1310.872 528.807 1157.491 514.539 1297.496 612.632"/>
        <polygon fill="#2E296D" stroke="#2E296D" points="1310.872 528.807 1159.274 507.406 1157.491 514.539"/>
        <polygon fill="#312360" stroke="#312360" points="1221.697 332.623 1066.532 246.123 1175.326 337.081"/>
        <polygon fill="#2F2565" stroke="#2F2565" points="1221.697 332.623 1175.326 337.081 1159.274 507.406"/>
        <polygon fill="#331F57" stroke="#331F57" points="1252.016 0 1045.13 0 1066.532 246.123"/>
        <polygon fill="#2C2F7B" stroke="#2C2F7B" points="1272.527 708.941 1204.754 675.946 1065.641 815.951"/>
        <polygon fill="#2D2C74" stroke="#2D2C74" points="1297.496 612.632 1157.491 514.539 1204.754 675.946"/>
        <polygon fill="#2F296D" stroke="#2F296D" points="1204.754 675.946 1157.491 514.539 962.198 588.555"/>
        <polygon fill="#2F2A70" stroke="#2F2A70" points="1204.754 675.946 962.198 588.555 1065.641 815.951"/>
        <polygon fill="#342463" stroke="#342463" points="1159.274 507.406 912.26 420.906 919.394 461.926"/>
        <polygon fill="#322464" stroke="#322464" points="1175.326 337.081 912.26 420.906 1159.274 507.406"/>
        <polygon fill="#342260" stroke="#342260" points="1175.326 337.081 1066.532 246.123 912.26 420.906"/>
        <polygon fill="#381E57" stroke="#381E57" points="1045.13 0 987.167 12.484 925.636 151.597"/>
        <polygon fill="#391F58" stroke="#391F58" points="1045.13 0 925.636 151.597 941.688 187.267"/>
        <polygon fill="#361F59" stroke="#361F59" points="1066.532 246.123 1045.13 0 941.688 187.267"/>
        <polygon fill="#332566" stroke="#332566" points="1157.491 514.539 919.394 461.926 962.198 588.555"/>
        <polygon fill="#312667" stroke="#312667" points="1159.274 507.406 919.394 461.926 1157.491 514.539"/>
        <polygon fill="#322769" stroke="#322769" points="1065.641 815.951 962.198 588.555 863.214 657.219"/>
        <polygon fill="#37225F" stroke="#37225F" points="1066.532 246.123 897.1 349.566 912.26 420.906"/>
        <polygon fill="#322668" stroke="#322668" points="1065.641 815.951 863.214 657.219 815.951 723.209"/>
        <polygon fill="#38205C" stroke="#38205C" points="1066.532 246.123 941.688 187.267 881.94 305.87"/>
        <polygon fill="#38215E" stroke="#38215E" points="1066.532 246.123 881.94 305.87 897.1 349.566"/>
        <polygon fill="#3B205C" stroke="#3B205C" points="941.688 187.267 889.966 193.51 881.94 305.87"/>
        <polygon fill="#3B1E59" stroke="#3B1E59" points="987.167 12.484 841.812 146.247 925.636 151.597"/>
        <polygon fill="#3E1E59" stroke="#3E1E59" points="987.167 12.484 766.013 62.422 841.812 146.247"/>
        <polygon fill="#362463" stroke="#362463" points="962.198 588.555 919.394 461.926 835.569 553.776"/>
        <polygon fill="#362464" stroke="#362464" points="962.198 588.555 835.569 553.776 863.214 657.219"/>
        <polygon fill="#3B1F5B" stroke="#3B1F5B" points="941.688 187.267 925.636 151.597 889.966 193.51"/>
        <polygon fill="#3C1F5B" stroke="#3C1F5B" points="925.636 151.597 841.812 146.247 889.966 193.51"/>
        <polygon fill="#392261" stroke="#392261" points="919.394 461.926 771.363 494.921 835.569 553.776"/>
        <polygon fill="#3A2261" stroke="#3A2261" points="919.394 461.926 912.26 420.906 769.58 432.499"/>
        <polygon fill="#3B2260" stroke="#3B2260" points="919.394 461.926 769.58 432.499 771.363 494.921"/>
        <polygon fill="#3A215F" stroke="#3A215F" points="912.26 420.906 897.1 349.566 796.332 376.318"/>
        <polygon fill="#3C2160" stroke="#3C2160" points="912.26 420.906 796.332 376.318 769.58 432.499"/>
        <polygon fill="#3D205C" stroke="#3D205C" points="889.966 193.51 841.812 146.247 881.94 305.87"/>
        <polygon fill="#3C215F" stroke="#3C215F" points="897.1 349.566 881.94 305.87 796.332 376.318"/>
        <polygon fill="#401F5D" stroke="#401F5D" points="881.94 305.87 841.812 146.247 669.704 185.484"/>
        <polygon fill="#40205E" stroke="#40205E" points="881.94 305.87 669.704 185.484 796.332 376.318"/>
        <polygon fill="#372363" stroke="#372363" points="863.214 657.219 835.569 553.776 751.745 739.26"/>
        <polygon fill="#362463" stroke="#362463" points="863.214 657.219 751.745 739.26 815.951 723.209"/>
        <polygon fill="#392262" stroke="#392262" points="835.569 553.776 771.363 494.921 751.745 739.26"/>
        <polygon fill="#441E5C" stroke="#441E5C" points="841.812 146.247 766.013 62.422 669.704 185.484"/>
        <polygon fill="#3B2260" stroke="#3B2260" points="771.363 494.921 574.287 717.858 751.745 739.26"/>
        <polygon fill="#402160" stroke="#402160" points="771.363 494.921 634.926 455.684 574.287 717.858"/>
        <polygon fill="#44205F" stroke="#44205F" points="796.332 376.318 669.704 185.484 634.926 455.684"/>
        <polygon fill="#402160" stroke="#402160" points="796.332 376.318 634.926 455.684 769.58 432.499"/>
        <polygon fill="#3F2160" stroke="#3F2160" points="771.363 494.921 769.58 432.499 634.926 455.684"/>
        <polygon fill="#4B2061" stroke="#4B2061" points="634.926 455.684 495.813 337.973 542.184 423.581"/>
        <polygon fill="#4B2061" stroke="#4B2061" points="669.704 185.484 495.813 337.973 634.926 455.684"/>
        <polygon fill="#4B1E5D" stroke="#4B1E5D" points="714.291 0 618.874 1.783 669.704 185.484"/>
        <polygon fill="#471E5C" stroke="#471E5C" points="766.013 62.422 714.291 0 669.704 185.484"/>
        <polygon fill="#43205F" stroke="#43205F" points="634.926 455.684 486.895 595.689 574.287 717.858"/>
        <polygon fill="#472060" stroke="#472060" points="634.926 455.684 493.138 531.483 486.895 595.689"/>
        <polygon fill="#501F62" stroke="#501F62" points="669.704 185.484 528.807 205.102 495.813 337.973"/>
        <polygon fill="#482060" stroke="#482060" points="634.926 455.684 538.617 472.627 493.138 531.483"/>
        <polygon fill="#4F1F60" stroke="#4F1F60" points="669.704 185.484 618.874 1.783 538.617 153.381"/>
        <polygon fill="#482061" stroke="#482061" points="634.926 455.684 542.184 423.581 550.209 432.499"/>
        <polygon fill="#501F61" stroke="#501F61" points="669.704 185.484 538.617 153.381 528.807 205.102"/>
        <polygon fill="#482060" stroke="#482060" points="634.926 455.684 550.209 432.499 538.617 472.627"/>
        <polygon fill="#581F63" stroke="#581F63" points="618.874 1.783 407.53 0 538.617 153.381"/>
        <polygon fill="#421F5D" stroke="#421F5D" points="574.287 717.858 486.895 595.689 415.555 741.044"/>
        <polygon fill="#572065" stroke="#572065" points="528.807 205.102 420.014 222.937 495.813 337.973"/>
        <polygon fill="#5E2067" stroke="#5E2067" points="538.617 153.381 407.53 0 409.313 182.809"/>
        <polygon fill="#4A2061" stroke="#4A2061" points="550.209 432.499 542.184 423.581 538.617 472.627"/>
        <polygon fill="#4E2062" stroke="#4E2062" points="542.184 423.581 412.88 376.318 538.617 472.627"/>
        <polygon fill="#512063" stroke="#512063" points="542.184 423.581 495.813 337.973 412.88 376.318"/>
        <polygon fill="#4D2062" stroke="#4D2062" points="538.617 472.627 412.88 376.318 493.138 531.483"/>
        <polygon fill="#582065" stroke="#582065" points="538.617 153.381 409.313 182.809 528.807 205.102"/>
        <polygon fill="#5C2067" stroke="#5C2067" points="528.807 205.102 409.313 182.809 420.014 222.937"/>
        <polygon fill="#461F5E" stroke="#461F5E" points="486.895 595.689 460.143 580.529 415.555 741.044"/>
        <polygon fill="#4E2062" stroke="#4E2062" points="493.138 531.483 412.88 376.318 450.334 554.668"/>
        <polygon fill="#481F60" stroke="#481F60" points="493.138 531.483 460.143 580.529 486.895 595.689"/>
        <polygon fill="#491F60" stroke="#491F60" points="493.138 531.483 450.334 554.668 460.143 580.529"/>
        <polygon fill="#582066" stroke="#582066" points="495.813 337.973 420.014 222.937 403.071 370.968"/>
        <polygon fill="#562065" stroke="#562065" points="495.813 337.973 403.071 370.968 412.88 376.318"/>
        <polygon fill="#6B216E" stroke="#6B216E" points="409.313 182.809 407.53 0 249.69 100.768"/>
        <polygon fill="#592066" stroke="#592066" points="412.88 376.318 403.071 370.968 263.066 473.519"/>
        <polygon fill="#5F2069" stroke="#5F2069" points="420.014 222.937 322.813 261.283 403.071 370.968"/>
        <polygon fill="#542063" stroke="#542063" points="450.334 554.668 412.88 376.318 263.066 473.519"/>
        <polygon fill="#491F5F" stroke="#491F5F" points="460.143 580.529 450.334 554.668 318.355 731.235"/>
        <polygon fill="#461F5D" stroke="#461F5D" points="460.143 580.529 318.355 731.235 415.555 741.044"/>
        <polygon fill="#4D1F5F" stroke="#4D1F5F" points="450.334 554.668 212.236 540.4 318.355 731.235"/>
        <polygon fill="#541F63" stroke="#541F63" points="450.334 554.668 263.066 473.519 212.236 540.4"/>
        <polygon fill="#62206A" stroke="#62206A" points="420.014 222.937 409.313 182.809 322.813 261.283"/>
        <polygon fill="#762274" stroke="#762274" points="407.53 0 223.829 0 249.69 100.768"/>
        <polygon fill="#6C216F" stroke="#6C216F" points="409.313 182.809 249.69 100.768 322.813 261.283"/>
        <polygon fill="#63206B" stroke="#63206B" points="403.071 370.968 322.813 261.283 220.262 364.726"/>
        <polygon fill="#5F2068" stroke="#5F2068" points="403.071 370.968 220.262 364.726 263.066 473.519"/>
        <polygon fill="#82237B" stroke="#82237B" points="249.69 100.768 223.829 0 214.912 15.16"/>
        <polygon fill="#6B216F" stroke="#6B216F" points="322.813 261.283 236.314 279.118 220.262 364.726"/>
        <polygon fill="#722272" stroke="#722272" points="322.813 261.283 249.69 100.768 236.314 279.118"/>
        <polygon fill="#4B1E5D" stroke="#4B1E5D" points="318.355 731.235 212.236 540.4 260.391 795.441"/>
        <polygon fill="#501E5E" stroke="#501E5E" points="260.391 795.441 212.236 540.4 24.969 660.786"/>
        <polygon fill="#6E2170" stroke="#6E2170" points="236.314 279.118 210.453 301.411 220.262 364.726"/>
        <polygon fill="#7F237A" stroke="#7F237A" points="249.69 100.768 135.546 101.659 236.314 279.118"/>
        <polygon fill="#4A1C59" stroke="#4A1C59" points="260.391 795.441 24.969 660.786 53.505 811.492"/>
        <polygon fill="#64206A" stroke="#64206A" points="263.066 473.519 220.262 364.726 142.68 445.875"/>
        <polygon fill="#5E1F67" stroke="#5E1F67" points="263.066 473.519 142.68 445.875 212.236 540.4"/>
        <polygon fill="#7B2378" stroke="#7B2378" points="236.314 279.118 135.546 101.659 210.453 301.411"/>
        <polygon fill="#89247F" stroke="#89247F" points="210.453 301.411 135.546 101.659 27.644 201.535"/>
        <polygon fill="#7F2379" stroke="#7F2379" points="210.453 301.411 27.644 201.535 129.304 326.38"/>
        <polygon fill="#86247E" stroke="#86247E" points="249.69 100.768 214.912 15.16 135.546 101.659"/>
        <polygon fill="#712171" stroke="#712171" points="220.262 364.726 210.453 301.411 129.304 326.38"/>
        <polygon fill="#6D216F" stroke="#6D216F" points="220.262 364.726 129.304 326.38 142.68 445.875"/>
        <polygon fill="#5B1E63" stroke="#5B1E63" points="212.236 540.4 0 539.508 24.969 660.786"/>
        <polygon fill="#992688" stroke="#992688" points="214.912 15.16 0 0 135.546 101.659"/>
        <polygon fill="#611F67" stroke="#611F67" points="212.236 540.4 142.68 445.875 0 539.508"/>
        <polygon fill="#A72791" stroke="#A72791" points="135.546 101.659 0 0 0 5.35"/>
        <polygon fill="#6A206C" stroke="#6A206C" points="142.68 445.875 66.881 402.179 0 510.081"/>
        <polygon fill="#661F69" stroke="#661F69" points="142.68 445.875 0 510.081 0 517.215"/>
        <polygon fill="#651F69" stroke="#651F69" points="142.68 445.875 0 517.215 0 539.508"/>
        <polygon fill="#702170" stroke="#702170" points="142.68 445.875 129.304 326.38 66.881 402.179"/>
        <polygon fill="#83237B" stroke="#83237B" points="129.304 326.38 27.644 201.535 0 362.05"/>
        <polygon fill="#A1278D" stroke="#A1278D" points="135.546 101.659 0 5.35 27.644 201.535"/>
        <polygon fill="#782274" stroke="#782274" points="129.304 326.38 0 362.05 66.881 402.179"/>
        <polygon fill="#4C1C59" stroke="#4C1C59" points="53.505 811.492 24.969 660.786 0 801.683"/>
        <polygon fill="#71216F" stroke="#71216F" points="66.881 402.179 0 362.05 0 510.081"/>
        <polygon fill="#9B268A" stroke="#9B268A" points="27.644 201.535 0 5.35 0 362.05"/>
        <polygon fill="#541D5D" stroke="#541D5D" points="24.969 660.786 0 539.508 0 801.683"/>
      </g>
    </g>
  </g>
</svg>
